<?xml version="1.0" encoding="UTF-8" standalone="no" ?>
<svg xmlns="http://www.w3.org/2000/svg" width="146.168px" height="17.720px" viewBox="0 -684 8075.9 979" xmlns:xlink="http://www.w3.org/1999/xlink" style=""><defs><path id="MJX-18-NCM-I-1D43F" d="M520 667C520 678 513 683 500 683L354 680L223 683C208 684 200 676 200 659C200 652 203 647 209 646C218 645 226 644 231 644C262 643 279 641 284 640C289 639 292 636 292 631C292 629 291 623 288 613L156 82C150 60 140 47 125 42C119 40 101 39 70 39C49 39 39 31 39 15C39 5 49 0 70 0L527 0C552 0 554 0 561 19L639 233C642 240 643 245 643 248C643 258 638 263 627 263C617 263 612 254 607 240C588 191 570 154 555 131C518 75 455 39 363 39L270 39C259 39 252 39 249 40C242 40 239 42 239 45C239 47 241 54 244 67L377 601C383 624 396 637 415 642C421 643 442 644 478 644C506 644 520 644 520 667Z"/><path id="MJX-18-NCM-I-1D446" d="M133 157C133 181 136 201 141 217C141 227 136 232 125 232C120 232 116 230 114 228C109 223 52 8 52-8C52-17 57-22 67-22C72-22 79-17 88-6L133 47C168 1 224-22 300-22C366-22 424 5 476 58C528 111 554 170 554 236C554 283 538 323 505 355C490 368 470 379 445 388C422 393 400 399 378 405L312 423C279 432 254 469 254 509C254 552 271 589 306 621C341 653 380 669 423 669C515 669 561 619 561 520C561 502 557 482 557 465L557 462C560 455 565 451 573 451C582 451 588 459 592 474L645 691C645 700 640 705 630 705C625 705 618 700 609 689L566 637C538 682 491 705 424 705C361 705 304 681 254 634C202 586 176 531 176 468C176 396 223 339 282 323L387 296C441 281 475 262 475 195C475 149 457 108 422 72C387 36 347 17 302 17C204 17 133 60 133 157Z"/><path id="MJX-18-NCM-N-2062" d=""/><path id="MJX-18-NCM-I-1D462" d="M543 144C543 153 538 158 527 158C518 158 513 151 510 137C505 118 500 99 493 80C480 39 462 18 440 18C422 18 413 32 413 60C413 77 420 111 433 161L460 267C469 303 477 328 483 359L489 386C491 393 492 398 492 401C492 421 481 431 459 431C437 431 423 419 417 394L343 98C342 95 338 88 330 76C314 50 275 18 235 18C197 18 178 44 178 95C178 136 196 202 231 294C242 324 248 345 248 357C248 407 213 442 163 442C118 442 83 417 58 367C39 328 29 301 29 287C29 278 34 273 45 273C58 273 60 279 64 293C87 373 119 413 160 413C174 413 181 403 181 384C181 369 175 348 164 319C126 218 107 148 107 111C107 34 155-11 232-11C275-11 314 9 347 50C361 9 391-11 437-11C506-11 527 70 543 144Z"/><path id="MJX-18-NCM-I-1D45F" d="M436 374C436 416 395 442 351 442C302 442 261 419 227 372C217 411 183 442 136 442C95 442 65 410 44 345C34 312 29 293 29 287C29 278 34 273 45 273C50 273 53 274 56 276C61 285 64 292 65 299C83 375 106 413 133 413C150 413 159 399 159 371C159 358 154 331 144 290L87 63C84 50 78 24 78 19C78-1 89-11 110-11C130-11 143-1 150 19L169 91C180 134 187 162 190 175L221 303C223 311 231 324 244 343C271 381 302 413 351 413C363 413 373 411 382 406C352 397 337 378 337 351C337 325 351 312 378 312C411 312 436 341 436 374Z"/><path id="MJX-18-NCM-I-1D453" d="M552 633C552 677 509 705 462 705C400 705 357 665 334 586C329 568 318 517 302 433L237 433C215 433 204 432 204 411C204 400 214 395 235 395L295 395L222 8C211-49 201-91 192-119C180-156 163-175 141-175C126-175 114-171 103-164C135-159 151-140 151-108C151-82 138-69 111-69C77-69 53-99 53-133C53-177 94-205 141-205C166-205 189-195 208-174C240-141 265-94 283-31C294 8 304 46 311 84L369 395L451 395C474 395 484 396 484 419C484 428 474 433 454 433L377 433C383 474 411 625 420 644C430 665 444 675 462 675C477 675 490 671 501 664C470 657 454 639 454 608C454 582 467 569 494 569C528 569 552 599 552 633Z"/><path id="MJX-18-NCM-N-2061" d=""/><path id="MJX-18-NCM-I-1D44E" d="M498 144C498 153 493 158 482 158C474 158 468 151 465 137C445 58 421 18 394 18C377 18 368 32 368 60C368 73 372 97 381 132L438 357C443 376 445 387 445 392C445 412 434 422 412 422C391 422 377 410 370 387C349 424 319 442 281 442C216 442 159 409 109 343C63 281 40 217 40 150C40 63 91-11 175-11C218-11 260 12 300 58C311 20 345-11 392-11C461-11 482 70 498 144M341 374C350 353 355 339 355 330C355 326 354 321 353 314L304 122C301 111 294 99 285 87C248 41 212 18 177 18C138 18 118 48 118 107C118 131 124 167 136 215C157 300 187 357 224 388C244 405 263 413 282 413C309 413 329 400 341 374Z"/><path id="MJX-18-NCM-I-1D450" d="M328 325C328 300 341 287 368 287C404 287 427 318 427 354C427 410 368 442 308 442C239 442 176 412 122 353C68 294 41 229 41 159C41 61 106-11 204-11C257-11 304 2 345 27C379 48 404 69 420 90C427 99 430 106 430 109C430 120 425 126 414 126C409 126 404 122 398 114C365 70 324 42 277 30C246 22 223 18 206 18C149 18 121 53 121 122C121 184 150 274 174 317C198 361 249 413 308 413C346 413 372 402 386 381C355 378 328 358 328 325Z"/><path id="MJX-18-NCM-I-1D452" d="M124 129C124 153 129 186 139 227L188 227C253 227 303 235 339 250C372 264 394 284 405 309C412 326 415 342 415 355C415 410 363 442 307 442C268 442 229 432 190 412C113 372 46 281 46 171C46 69 105-11 204-11C257-11 304 2 345 27C379 48 404 69 420 90C427 99 430 106 430 109C430 120 425 126 414 126C409 126 404 122 398 114C365 70 324 42 277 30C246 22 223 18 206 18C149 18 124 72 124 129M375 355C375 289 311 256 182 256L147 256C166 322 194 366 232 387C262 404 287 413 307 413C343 413 375 391 375 355Z"/><path id="MJX-18-NCM-N-3D" d="M698 367L80 367C64 367 56 359 56 344C56 329 64 321 80 321L698 321C714 321 722 329 722 344C722 356 711 367 698 367M698 179L80 179C64 179 56 171 56 156C56 141 64 133 80 133L698 133C714 133 722 141 722 156C722 169 711 179 698 179Z"/><path id="MJX-18-NCM-N-2B" d="M698 274L413 274L413 559C413 575 405 583 389 583C373 583 365 575 365 559L365 274L80 274C64 274 56 266 56 250C56 234 64 226 80 226L365 226L365-59C365-75 373-83 389-83C405-83 413-75 413-59L413 226L698 226C714 226 722 234 722 250C722 263 711 274 698 274Z"/></defs><g stroke="#ffffff" fill="#ffffff" stroke-width="0" transform="scale(1,-1)"><g data-mml-node="math" data-latex="L_{Surface} = L_{e} + L_{r}" data-semantic-type="relseq" data-semantic-role="equality" data-semantic-annotation="depth:1" data-semantic-id="27" data-semantic-children="17,26" data-semantic-content="18" data-semantic-attributes="latex:L_{Surface} = L_{e} + L_{r}" data-semantic-owns="17 18 26" aria-level="0" data-speech-node="true" data-semantic-structure="(27 (17 0 (16 1 13 2 14 3 15 (12 4 11 (10 5 8 6 9 7)))) 18 (26 (21 19 20) 22 (25 23 24)))"><g data-mml-node="msub" data-latex="L_{S u r f a c e}" data-semantic-type="subscript" data-semantic-role="latinletter" data-semantic-annotation="depth:2" data-semantic-id="17" data-semantic-children="0,16" data-semantic-parent="27" data-semantic-attributes="latex:L_{S u r f a c e}" data-semantic-owns="0 16" aria-level="1" data-speech-node="true"><g data-mml-node="mi" data-latex="L" data-semantic-type="identifier" data-semantic-role="latinletter" data-semantic-font="italic" data-semantic-annotation="clearspeak:simple;nemeth:number;depth:3" data-semantic-id="0" data-semantic-parent="17" data-semantic-attributes="latex:L" aria-level="2" data-speech-node="true"><use data-c="1D43F" xmlns:xlink="http://www.w3.org/1999/xlink" xlink:href="#MJX-18-NCM-I-1D43F"/></g><g data-mml-node="TeXAtom" transform="translate(714,-150) scale(0.707)" data-mjx-texclass="ORD" data-latex="{S u r f a c e}" data-semantic-type="infixop" data-semantic-role="implicit" data-semantic-annotation="clearspeak:unit;depth:3" data-semantic-id="16" data-semantic-children="1,2,3,12" data-semantic-content="13,14,15" data-semantic-parent="17" data-semantic-attributes="latex:{S u r f a c e};texclass:ORD" data-semantic-owns="1 13 2 14 3 15 12" aria-level="2" data-speech-node="true"><g data-mml-node="mi" data-latex="S" data-semantic-type="identifier" data-semantic-role="latinletter" data-semantic-font="italic" data-semantic-annotation="clearspeak:simple;depth:4" data-semantic-id="1" data-semantic-parent="16" data-semantic-attributes="latex:S" aria-level="3" data-speech-node="true"><use data-c="1D446" xmlns:xlink="http://www.w3.org/1999/xlink" xlink:href="#MJX-18-NCM-I-1D446"/></g><g data-mml-node="mo" data-semantic-type="operator" data-semantic-role="multiplication" data-semantic-annotation="depth:4" data-semantic-id="13" data-semantic-parent="16" data-semantic-added="true" data-semantic-operator="infixop,⁢" aria-level="3" data-speech-node="true" transform="translate(645,0)"><use data-c="2062" xmlns:xlink="http://www.w3.org/1999/xlink" xlink:href="#MJX-18-NCM-N-2062"/></g><g data-mml-node="mi" data-latex="u" data-semantic-type="identifier" data-semantic-role="latinletter" data-semantic-font="italic" data-semantic-annotation="clearspeak:simple;depth:4" data-semantic-id="2" data-semantic-parent="16" data-semantic-attributes="latex:u" aria-level="3" data-speech-node="true" transform="translate(645,0)"><use data-c="1D462" xmlns:xlink="http://www.w3.org/1999/xlink" xlink:href="#MJX-18-NCM-I-1D462"/></g><g data-mml-node="mo" data-semantic-type="operator" data-semantic-role="multiplication" data-semantic-annotation="depth:4" data-semantic-id="14" data-semantic-parent="16" data-semantic-added="true" data-semantic-operator="infixop,⁢" aria-level="3" data-speech-node="true" transform="translate(1217,0)"><use data-c="2062" xmlns:xlink="http://www.w3.org/1999/xlink" xlink:href="#MJX-18-NCM-N-2062"/></g><g data-mml-node="mi" data-latex="r" data-semantic-type="identifier" data-semantic-role="latinletter" data-semantic-font="italic" data-semantic-annotation="clearspeak:simple;depth:4" data-semantic-id="3" data-semantic-parent="16" data-semantic-attributes="latex:r" aria-level="3" data-speech-node="true" transform="translate(1217,0)"><use data-c="1D45F" xmlns:xlink="http://www.w3.org/1999/xlink" xlink:href="#MJX-18-NCM-I-1D45F"/></g><g data-mml-node="mo" data-semantic-type="operator" data-semantic-role="multiplication" data-semantic-annotation="depth:4" data-semantic-id="15" data-semantic-parent="16" data-semantic-added="true" data-semantic-operator="infixop,⁢" aria-level="3" data-speech-node="true" transform="translate(1668,0)"><use data-c="2062" xmlns:xlink="http://www.w3.org/1999/xlink" xlink:href="#MJX-18-NCM-N-2062"/></g><g data-mml-node="mrow" data-semantic-added="true" data-semantic-type="appl" data-semantic-role="simple function" data-semantic-annotation="depth:4" data-semantic-id="12" data-semantic-children="4,10" data-semantic-content="11,4" data-semantic-parent="16" data-semantic-owns="4 11 10" aria-level="3" data-speech-node="true" transform="translate(1668,0)"><g data-mml-node="mi" data-latex="f" data-semantic-type="identifier" data-semantic-role="simple function" data-semantic-font="italic" data-semantic-annotation="clearspeak:simple;nemeth:number;depth:5" data-semantic-id="4" data-semantic-parent="12" data-semantic-attributes="latex:f" data-semantic-operator="appl" aria-level="4" data-speech-node="true"><use data-c="1D453" xmlns:xlink="http://www.w3.org/1999/xlink" xlink:href="#MJX-18-NCM-I-1D453"/></g><g data-mml-node="mo" data-semantic-type="punctuation" data-semantic-role="application" data-semantic-annotation="nemeth:number;depth:5" data-semantic-id="11" data-semantic-parent="12" data-semantic-added="true" data-semantic-operator="appl" aria-level="4" data-speech-node="true" transform="translate(552,0)"><use data-c="2061" xmlns:xlink="http://www.w3.org/1999/xlink" xlink:href="#MJX-18-NCM-N-2061"/></g><g data-mml-node="mrow" data-semantic-added="true" data-semantic-type="infixop" data-semantic-role="implicit" data-semantic-annotation="clearspeak:unit;depth:5" data-semantic-id="10" data-semantic-children="5,6,7" data-semantic-content="8,9" data-semantic-parent="12" data-semantic-owns="5 8 6 9 7" aria-level="4" data-speech-node="true" transform="translate(552,0)"><g data-mml-node="mi" data-latex="a" data-semantic-type="identifier" data-semantic-role="latinletter" data-semantic-font="italic" data-semantic-annotation="clearspeak:simple;nemeth:number;depth:6" data-semantic-id="5" data-semantic-parent="10" data-semantic-attributes="latex:a" aria-level="5" data-speech-node="true"><use data-c="1D44E" xmlns:xlink="http://www.w3.org/1999/xlink" xlink:href="#MJX-18-NCM-I-1D44E"/></g><g data-mml-node="mo" data-semantic-type="operator" data-semantic-role="multiplication" data-semantic-annotation="depth:6" data-semantic-id="8" data-semantic-parent="10" data-semantic-added="true" data-semantic-operator="infixop,⁢" aria-level="5" data-speech-node="true" transform="translate(529,0)"><use data-c="2062" xmlns:xlink="http://www.w3.org/1999/xlink" xlink:href="#MJX-18-NCM-N-2062"/></g><g data-mml-node="mi" data-latex="c" data-semantic-type="identifier" data-semantic-role="latinletter" data-semantic-font="italic" data-semantic-annotation="clearspeak:simple;depth:6" data-semantic-id="6" data-semantic-parent="10" data-semantic-attributes="latex:c" aria-level="5" data-speech-node="true" transform="translate(529,0)"><use data-c="1D450" xmlns:xlink="http://www.w3.org/1999/xlink" xlink:href="#MJX-18-NCM-I-1D450"/></g><g data-mml-node="mo" data-semantic-type="operator" data-semantic-role="multiplication" data-semantic-annotation="depth:6" data-semantic-id="9" data-semantic-parent="10" data-semantic-added="true" data-semantic-operator="infixop,⁢" aria-level="5" data-speech-node="true" transform="translate(962,0)"><use data-c="2062" xmlns:xlink="http://www.w3.org/1999/xlink" xlink:href="#MJX-18-NCM-N-2062"/></g><g data-mml-node="mi" data-latex="e" data-semantic-type="identifier" data-semantic-role="latinletter" data-semantic-font="italic" data-semantic-annotation="clearspeak:simple;depth:6" data-semantic-id="7" data-semantic-parent="10" data-semantic-attributes="latex:e" aria-level="5" data-speech-node="true" transform="translate(962,0)"><use data-c="1D452" xmlns:xlink="http://www.w3.org/1999/xlink" xlink:href="#MJX-18-NCM-I-1D452"/></g></g></g></g></g><g data-mml-node="mo" data-latex="=" data-semantic-type="relation" data-semantic-role="equality" data-semantic-annotation="nemeth:number;depth:2" data-semantic-id="18" data-semantic-parent="27" data-semantic-attributes="latex:=" data-semantic-operator="relseq,=" aria-level="1" data-speech-node="true" transform="translate(3621.3,0)"><use data-c="3D" xmlns:xlink="http://www.w3.org/1999/xlink" xlink:href="#MJX-18-NCM-N-3D"/></g><g data-mml-node="mrow" data-semantic-added="true" data-semantic-type="infixop" data-semantic-role="addition" data-semantic-annotation="depth:2" data-semantic-id="26" data-semantic-children="21,25" data-semantic-content="22" data-semantic-parent="27" data-semantic-owns="21 22 25" aria-level="1" data-speech-node="true" transform="translate(4677.1,0)"><g data-mml-node="msub" data-latex="L_{e}" data-semantic-type="subscript" data-semantic-role="latinletter" data-semantic-annotation="depth:3" data-semantic-id="21" data-semantic-children="19,20" data-semantic-parent="26" data-semantic-attributes="latex:L_{e}" data-semantic-owns="19 20" aria-level="2" data-speech-node="true"><g data-mml-node="mi" data-latex="L" data-semantic-type="identifier" data-semantic-role="latinletter" data-semantic-font="italic" data-semantic-annotation="clearspeak:simple;nemeth:number;depth:4" data-semantic-id="19" data-semantic-parent="21" data-semantic-attributes="latex:L" aria-level="3" data-speech-node="true"><use data-c="1D43F" xmlns:xlink="http://www.w3.org/1999/xlink" xlink:href="#MJX-18-NCM-I-1D43F"/></g><g data-mml-node="TeXAtom" transform="translate(714,-150) scale(0.707)" data-mjx-texclass="ORD" data-latex="{e}"><g data-mml-node="mi" data-latex="e" data-semantic-type="identifier" data-semantic-role="latinletter" data-semantic-font="italic" data-semantic-annotation="clearspeak:simple;depth:4" data-semantic-id="20" data-semantic-parent="21" data-semantic-attributes="latex:{e};texclass:ORD" aria-level="3" data-speech-node="true"><use data-c="1D452" xmlns:xlink="http://www.w3.org/1999/xlink" xlink:href="#MJX-18-NCM-I-1D452"/></g></g></g><g data-mml-node="mo" data-latex="+" data-semantic-type="operator" data-semantic-role="addition" data-semantic-annotation="depth:3" data-semantic-id="22" data-semantic-parent="26" data-semantic-attributes="latex:+" data-semantic-operator="infixop,+" aria-level="2" data-speech-node="true" transform="translate(1315.7,0)"><use data-c="2B" xmlns:xlink="http://www.w3.org/1999/xlink" xlink:href="#MJX-18-NCM-N-2B"/></g><g data-mml-node="msub" data-latex="L_{r}" data-semantic-type="subscript" data-semantic-role="latinletter" data-semantic-annotation="depth:3" data-semantic-id="25" data-semantic-children="23,24" data-semantic-parent="26" data-semantic-attributes="latex:L_{r}" data-semantic-owns="23 24" aria-level="2" data-speech-node="true" transform="translate(2316,0)"><g data-mml-node="mi" data-latex="L" data-semantic-type="identifier" data-semantic-role="latinletter" data-semantic-font="italic" data-semantic-annotation="clearspeak:simple;depth:4" data-semantic-id="23" data-semantic-parent="25" data-semantic-attributes="latex:L" aria-level="3" data-speech-node="true"><use data-c="1D43F" xmlns:xlink="http://www.w3.org/1999/xlink" xlink:href="#MJX-18-NCM-I-1D43F"/></g><g data-mml-node="TeXAtom" transform="translate(714,-150) scale(0.707)" data-mjx-texclass="ORD" data-latex="{r}"><g data-mml-node="mi" data-latex="r" data-semantic-type="identifier" data-semantic-role="latinletter" data-semantic-font="italic" data-semantic-annotation="clearspeak:simple;depth:4" data-semantic-id="24" data-semantic-parent="25" data-semantic-attributes="latex:{r};texclass:ORD" aria-level="3" data-speech-node="true"><use data-c="1D45F" xmlns:xlink="http://www.w3.org/1999/xlink" xlink:href="#MJX-18-NCM-I-1D45F"/></g></g></g></g></g></g></svg>